HIERARCHY
ROOT Hips
{
  OFFSET -69.4423 88.0299 51.6846
  CHANNELS 6 Xposition Yposition Zposition Zrotation Xrotation Yrotation
  JOINT Spine
  {
    OFFSET 12.0259 -0.162853 1.93176e-005
    CHANNELS 3 Zrotation Xrotation Yrotation
    JOINT Spine1
    {
      OFFSET 15.3169 -0.0121909 0
      CHANNELS 3 Zrotation Xrotation Yrotation
      JOINT Spine2
      {
        OFFSET 15.3176 -0.0121922 0
        CHANNELS 3 Zrotation Xrotation Yrotation
        JOINT Neck
        {
          OFFSET 19.9142 1.56236 0
          CHANNELS 3 Zrotation Xrotation Yrotation
          JOINT Head
          {
            OFFSET 6.92646 0 0
            CHANNELS 3 Zrotation Xrotation Yrotation
            End Site
            {
              OFFSET 20.7666 0 0
            }
          }
          JOINT LeftShoulder
          {
            OFFSET -4.94072 -1.14703 8.14416
            CHANNELS 3 Zrotation Xrotation Yrotation
            JOINT LeftArm
            {
              OFFSET 14.108 0 -2.74767e-005
              CHANNELS 3 Zrotation Xrotation Yrotation
              JOINT LeftForeArm
              {
                OFFSET 28.5802 -0.0783412 -0.0284884
                CHANNELS 3 Zrotation Xrotation Yrotation
                JOINT LeftHand
                {
                  OFFSET 27.092 0 0
                  CHANNELS 3 Zrotation Xrotation Yrotation
                  End Site
                  {
                    OFFSET 9.55928 -0.186424 0.145352
                  }
                }
              }
            }
          }
          JOINT RightShoulder
          {
            OFFSET -7.15748 -1.33027 -6.24935
            CHANNELS 3 Zrotation Xrotation Yrotation
            JOINT RightArm
            {
              OFFSET 14.108 0 1.82997e-005
              CHANNELS 3 Zrotation Xrotation Yrotation
              JOINT RightForeArm
              {
                OFFSET 28.5802 -0.0707221 2.30684e-005
                CHANNELS 3 Zrotation Xrotation Yrotation
                JOINT RightHand
                {
                  OFFSET 27.092 0 -1.30073e-005
                  CHANNELS 3 Zrotation Xrotation Yrotation
                  End Site
                  {
                    OFFSET 9.55929 -0.186417 -0.145354
                  }
                }
              }
            }
          }
        }
      }
    }
  }
  JOINT LeftUpLeg
  {
    OFFSET 0.00499725 -0.534999 8.837
    CHANNELS 3 Zrotation Xrotation Yrotation
    JOINT LeftLeg
    {
      OFFSET 39.9035 -0.00124594 0.000252775
      CHANNELS 3 Zrotation Xrotation Yrotation
      JOINT LeftFoot
      {
        OFFSET 39.6689 0 0
        CHANNELS 3 Zrotation Xrotation Yrotation
        JOINT LeftToe
        {
          OFFSET 10.1624 13.6296 0
          CHANNELS 3 Zrotation Xrotation Yrotation
          End Site
          {
            OFFSET 8.38147 0 0
          }
        }
      }
    }
  }
  JOINT RightUpLeg
  {
    OFFSET 0.00499725 -0.535 -8.837
    CHANNELS 3 Zrotation Xrotation Yrotation
    JOINT RightLeg
    {
      OFFSET 39.9036 -0.000268477 0.000106433
      CHANNELS 3 Zrotation Xrotation Yrotation
      JOINT RightFoot
      {
        OFFSET 39.6689 1.17892e-005 0
        CHANNELS 3 Zrotation Xrotation Yrotation
        JOINT RightToe
        {
          OFFSET 10.1624 13.6296 0
          CHANNELS 3 Zrotation Xrotation Yrotation
          End Site
          {
            OFFSET 8.38147 0 0
          }
        }
      }
    }
  }
}
MOTION
Frames:	11
Frame Time:	0.0333333
-3.81916 89.1199 9.94734 88.1213 -18.0024 1.52081 0.848376 1.61488 0.0898423 1.69519 3.23142 0.155992 1.69519 3.23143 0.155985 -19.6221 -0.603998 -12.7755 47.6229 0.696648 13.481 -162.376 -3.99669 -95.7338 -20.2972 3.7984 85.6869 -22.6796 2.60811 -14.9109 4.05043 -80.8164 5.98062 -162.267 -5.67855 72.952 -15.2773 -5.78512 -84.1024 -26.3963 -3.84606 16.3006 2.82934 84.3349 -2.72531 6.87751 6.58859 177.246 -4.84456 0.933696 -1.21322 -3.82025 -10.6383 -1.62699 90 1.87355e-014 1.8487e-014 -8.00071 -21.5354 172.366 -33.6762 -0.354054 0.214205 15.9245 39.5958 -7.57384 90 -1.799e-014 -2.70347e-014 
-4.52915 89.1133 10.6106 87.7116 -15.6504 1.383 0.891449 1.56379 0.129371 1.78038 3.12984 0.234666 1.78037 3.12984 0.234652 -19.6625 -0.372031 -13.4519 47.8501 1.57498 14.1778 -162.344 -4.03894 -96.4389 -21.2907 4.06566 85.889 -22.5727 2.58365 -14.8466 5.72315 -82.541 7.70743 -162.24 -5.70265 72.2385 -16.0357 -5.88822 -84.2615 -26.7329 -3.93027 16.4726 2.46298 83.5474 -2.36059 8.01786 5.89305 177.114 -3.51281 0.944343 -1.22987 -3.98948 -8.54404 -1.48941 90 2.64384e-014 2.66371e-014 -6.50855 -19.3261 172.3 -34.2356 -0.352359 0.171279 12.7542 39.794 -5.54781 90 5.56597e-015 -0 
-5.23184 89.0992 11.8206 87.9711 -13.268 1.8474 0.792166 1.48745 0.0860877 1.58289 2.97617 0.151834 1.58289 2.97613 0.151824 -19.2473 -0.292191 -12.6887 47.5885 1.13787 12.879 -162.677 -3.59815 -95.764 -21.9243 4.48722 86.0936 -22.43 2.55186 -14.7615 7.27208 -83.8192 9.295 -162.563 -5.21354 72.9144 -16.0499 -5.87301 -84.5006 -27.1997 -4.05215 16.7048 2.26786 83.0386 -2.16702 8.7305 5.08545 176.122 -1.78935 0.94883 -1.26695 -4.03745 -6.76111 -1.30543 90 3.51849e-014 3.45885e-014 -6.75025 -18.0513 170.709 -35.5224 -0.329461 0.116882 9.50406 36.8105 -3.05662 90 2.0276e-014 -1.27222e-014 
-5.73335 89.0086 12.8022 88.0543 -10.8866 2.27697 0.733891 1.43194 0.0126163 1.46817 2.86445 0.00706098 1.46816 2.86446 0.00704593 -19.3043 -0.386337 -12.2952 48.1046 0.617204 12.317 -162.603 -3.54465 -95.3352 -21.7188 4.59329 85.9933 -21.9578 2.46181 -14.5114 5.89818 -82.8968 7.89453 -162.5 -5.14764 73.3218 -15.8463 -5.75581 -84.8823 -27.504 -4.13672 16.8676 2.39148 83.4557 -2.28992 8.60333 4.30385 175.388 -1.78234 0.956843 -1.24778 -3.64941 -5.13275 -1.05322 90 -7.95139e-016 -1.19271e-015 -6.40951 -15.9531 169.824 -36.3952 -0.311695 0.039076 5.51365 32.1463 -0.338743 90 5.56597e-015 -6.36111e-015 
-6.1108 88.9316 13.4291 87.9022 -8.52589 2.2239 0.719814 1.3104 0.0636862 1.43874 2.62199 0.111071 1.43874 2.62197 0.111065 -19.082 -0.346457 -11.8533 47.7056 0.18287 11.334 -162.778 -3.27975 -94.9369 -21.1604 4.66284 86.0752 -21.7006 2.41569 -14.3752 5.033 -82.016 6.99373 -162.683 -4.86876 73.7012 -15.8234 -5.70594 -85.0438 -27.744 -4.20518 16.9964 2.56752 83.9455 -2.4665 8.66194 3.6137 175.327 -1.77801 0.967898 -1.22643 -3.28147 -3.62094 -0.835844 90 1.07344e-014 1.07344e-014 -5.35012 -13.2556 170.455 -37.1798 -0.342204 0.00482529 8.15775 26.9863 -1.35349 90 -3.97569e-016 -3.18055e-015 
-6.4603 88.888 13.9712 87.7358 -6.38708 2.16371 0.762945 1.27078 0.0819893 1.52464 2.54303 0.147235 1.52463 2.543 0.147229 -19.1838 -0.448201 -11.7685 47.8315 0.104852 11.507 -162.679 -3.36026 -94.8209 -21.6448 4.7233 85.5502 -21.509 2.37729 -14.2567 5.71244 -82.5219 7.68205 -162.593 -4.96569 73.8093 -15.994 -5.44299 -85.2179 -27.6867 -4.18803 16.9669 2.7099 84.2803 -2.60894 7.11397 3.16962 175.319 -5.00361 0.995133 -1.10147 -1.87265 -3.10614 -0.591899 90 1.15295e-014 1.15295e-014 -4.5134 -10.6143 171.294 -37.9868 -0.374221 -0.0538712 10.5435 20.9215 -1.86989 90 6.80837e-015 -3.18055e-015 
-6.69896 88.9574 14.2764 87.7461 -4.33085 1.70562 0.791679 1.17831 0.21947 1.57939 2.36003 0.422937 1.57939 2.35999 0.422919 -19.4076 -0.431569 -12.1857 47.8601 0.23525 11.8302 -162.468 -3.50836 -95.1917 -20.5759 4.19082 85.3629 -21.3023 2.34965 -14.157 4.57626 -81.4361 6.54335 -162.402 -5.13921 73.4003 -16.723 -5.21516 -85.0905 -27.4345 -4.11589 16.8382 2.76321 84.378 -2.65828 6.51226 2.81433 175.849 -5.9822 1.00285 -1.03941 -1.25314 -2.06374 -0.424967 90 -9.54166e-015 -9.44227e-015 -4.454 -8.84413 172.858 -38.7391 -0.386492 -0.121526 11.5428 15.6149 -1.75038 90 2.95195e-014 3.18055e-014 
-6.86947 89.084 14.544 87.7548 -2.4731 1.43236 0.849144 1.15378 0.236742 1.69404 2.31142 0.456647 1.69404 2.31147 0.456631 -19.5529 -0.655748 -12.7563 47.6467 0.459328 13.0872 -162.415 -3.97028 -95.677 -21.4605 4.44527 84.9656 -21.6964 2.41185 -14.346 5.97624 -83.0421 7.9558 -162.343 -5.61249 72.942 -16.8649 -4.72873 -85.3819 -27.3432 -4.08337 16.777 2.53851 83.7938 -2.4215 6.31268 2.6562 176.238 -6.17386 1.01546 -0.999783 -0.949325 -0.418465 -0.2999 90 1.11319e-014 1.15295e-014 -4.87372 -6.81266 174.452 -39.2867 -0.38312 -0.166178 11.9698 11.4192 -1.51993 90 2.98177e-015 3.18055e-015 
-7.14652 89.0803 14.6659 87.6264 -0.977637 0.992093 0.866445 1.10318 0.28961 1.72784 2.21111 0.562827 1.72783 2.21108 0.562813 -19.3599 -0.684065 -12.1951 47.4333 0.217236 12.5181 -162.569 -3.76703 -95.1508 -20.3577 4.24721 85.1665 -21.7667 2.43572 -14.3906 5.12317 -81.7921 7.0678 -162.488 -5.3999 73.4609 -18.472 -4.93612 -85.6757 -27.4319 -4.11226 16.848 3.19779 84.395 -3.09253 5.71596 2.88073 176.714 -7.65566 1.03401 -0.937307 -0.0229432 0.660435 -0.203411 90 -6.75868e-015 -5.22644e-015 -5.15619 -5.79803 176.207 -39.3333 -0.388195 -0.195227 13.2612 9.02637 -1.60224 90 1.59028e-014 1.90833e-014 
-7.15782 88.9806 14.8457 87.8806 0.233356 1.09817 0.880046 1.1003 0.252373 1.75572 2.20487 0.488104 1.75571 2.20486 0.48809 -19.8262 -0.41329 -13.2007 48.1171 1.44266 13.8354 -162.163 -4.06167 -96.1867 -21.9475 4.67514 84.6272 -22.2197 2.50086 -14.6015 6.51492 -83.2823 8.46837 -162.067 -5.71643 72.4733 -19.2015 -4.74463 -85.7733 -27.6539 -4.15385 16.9411 2.71857 84.0952 -2.61842 4.74759 3.18959 176.785 -8.84871 0.975519 -0.922333 0.573972 2.09781 -0.11707 90 6.36111e-015 5.90142e-015 -6.31773 -5.7391 177.251 -39.3587 -0.434687 -0.291575 14.4267 7.95594 -1.72776 90 -1.59028e-015 1.59028e-015 
-7.31553 88.8115 15.0335 87.7089 1.54049 1.50166 0.938917 1.05213 0.0861375 1.87673 2.10585 0.155208 1.87673 2.10585 0.155201 -19.537 -0.767636 -12.4957 47.617 0.51594 13.3423 -162.458 -4.10081 -95.4533 -21.4839 4.77936 83.9967 -22.4232 2.54167 -14.6885 6.23684 -82.9134 8.17293 -162.356 -5.76469 73.2369 -20.0039 -4.70957 -86.268 -27.8526 -4.19589 17.0325 2.53958 83.8576 -2.43704 4.15342 3.28656 176.484 -10.3959 0.955211 -0.874969 1.53555 3.08093 -0.0820415 90 0 1.98785e-016 -6.76467 -6.28155 177.745 -38.7722 -0.45746 -0.352541 15.9672 6.45816 -1.79062 90 2.13694e-014 2.06736e-014 
